<svg version="1.1" xmlns="http://www.w3.org/2000/svg" viewBox="0 0 2078.857225690569 755.4285939534504" width="4157.714451381138" height="1510.857187906901" filter="invert(93%) hue-rotate(180deg)">
  <!-- svg-source:excalidraw -->
  
  <defs>
    <style class="style-fonts">
      @font-face {
        font-family: "Virgil";
        src: url("https://excalidraw.com/Virgil.woff2");
      }
      @font-face {
        font-family: "Cascadia";
        src: url("https://excalidraw.com/Cascadia.woff2");
      }
      @font-face {
        font-family: "Assistant";
        src: url("https://excalidraw.com/Assistant-Regular.woff2");
      }
    </style>
    
  </defs>
  <rect x="0" y="0" width="2078.857225690569" height="755.4285939534504" fill="#ffffff"></rect><g stroke-linecap="round" transform="translate(10 10) rotate(0 473.7142726353236 364.57145690917963)"><path d="M32 0 C255.32 0.42, 477.78 -0.34, 915.43 0 M32 0 C342.56 3.34, 652.36 3.25, 915.43 0 M915.43 0 C934.85 -0.05, 945.45 11.35, 947.43 32 M915.43 0 C939.03 0, 948.98 10.66, 947.43 32 M947.43 32 C948.15 223.73, 948.61 415.15, 947.43 697.14 M947.43 32 C949.17 204.38, 949.14 377.47, 947.43 697.14 M947.43 697.14 C948.31 719.84, 938.45 727.88, 915.43 729.14 M947.43 697.14 C948.86 718.09, 936.7 729.98, 915.43 729.14 M915.43 729.14 C696.78 728.09, 479.66 728.74, 32 729.14 M915.43 729.14 C568.57 726.9, 221.69 726.42, 32 729.14 M32 729.14 C9.93 731.09, 1.84 718.08, 0 697.14 M32 729.14 C12.55 728.22, 0.26 716.88, 0 697.14 M0 697.14 C-1.42 547.53, -0.83 399.05, 0 32 M0 697.14 C-0.48 522.62, -0.21 347.52, 0 32 M0 32 C-0.13 10.15, 9.27 1.27, 32 0 M0 32 C0.96 12.67, 10.08 1.01, 32 0" stroke="#1971c2" stroke-width="2" fill="none"></path></g><g stroke-linecap="round" transform="translate(46.76165626162572 144.78230196038322) rotate(0 119.28984168577162 133.20856421006903)"><path d="M32 0 C74.43 -0.65, 115.54 -1.26, 206.58 0 M32 0 C73.89 -0.11, 118.38 -1.46, 206.58 0 M206.58 0 C229.23 1.96, 238.23 11.88, 238.58 32 M206.58 0 C225.71 0.22, 239.95 12.7, 238.58 32 M238.58 32 C235.85 94.05, 236.62 158.44, 238.58 234.42 M238.58 32 C240.36 86.02, 240.64 138.07, 238.58 234.42 M238.58 234.42 C237.2 256.22, 229.32 266.2, 206.58 266.42 M238.58 234.42 C238.7 254.56, 227.06 267.47, 206.58 266.42 M206.58 266.42 C164.97 264.65, 126.79 267.79, 32 266.42 M206.58 266.42 C169 267.36, 130.88 266.92, 32 266.42 M32 266.42 C10.81 266.59, 0.64 254.08, 0 234.42 M32 266.42 C9.23 266.31, 2.11 253.53, 0 234.42 M0 234.42 C0.44 185.65, 0.7 136.7, 0 32 M0 234.42 C-0.75 167.27, -1.56 100.84, 0 32 M0 32 C0.85 11.92, 8.69 1.07, 32 0 M0 32 C1.58 12.26, 12.82 2.02, 32 0" stroke="#e03131" stroke-width="2" fill="none"></path></g><g transform="translate(104.95608399194356 170.78965052036253) rotate(0 58.464019775390625 22.5)"><text x="0" y="31.536" font-family="Virgil, Segoe UI Emoji" font-size="36px" fill="#e03131" text-anchor="start" style="white-space: pre;" direction="ltr" dominant-baseline="alphabetic">Commit</text></g><g stroke-linecap="round" transform="translate(44.09519740513383 503.3334059942335) rotate(0 131.9999476841517 68.57145036969857)"><path d="M32 0 C88.18 -3.53, 146.87 -1.7, 232 0 M32 0 C111.47 1.41, 190.57 0.36, 232 0 M232 0 C254.25 -0.03, 264.29 8.81, 264 32 M232 0 C254.33 -2.08, 262.15 9.9, 264 32 M264 32 C264.51 60.75, 265.05 89.35, 264 105.14 M264 32 C264.99 52.66, 264.13 72.34, 264 105.14 M264 105.14 C265.08 124.71, 251.53 136.83, 232 137.14 M264 105.14 C261.72 128.42, 253.65 135.96, 232 137.14 M232 137.14 C189.19 138.19, 143.06 138.02, 32 137.14 M232 137.14 C165.9 136.44, 99.75 136.56, 32 137.14 M32 137.14 C8.85 137.32, 1.5 124.92, 0 105.14 M32 137.14 C12.72 137.57, -1.22 125.31, 0 105.14 M0 105.14 C0.31 78.43, 0.52 51.54, 0 32 M0 105.14 C0.12 77.77, 0.18 51.48, 0 32 M0 32 C1.36 12.19, 10.54 -0.62, 32 0 M0 32 C-1.83 12.22, 9.78 -0.5, 32 0" stroke="#f08c00" stroke-width="2" fill="none"></path></g><g transform="translate(86.38096400669701 527.3333885556173) rotate(0 81.95990753173828 37.5)"><text x="0" y="17.52" font-family="Virgil, Segoe UI Emoji" font-size="20px" fill="#1e1e1e" text-anchor="start" style="white-space: pre;" direction="ltr" dominant-baseline="alphabetic">- General checks</text><text x="0" y="42.519999999999996" font-family="Virgil, Segoe UI Emoji" font-size="20px" fill="#1e1e1e" text-anchor="start" style="white-space: pre;" direction="ltr" dominant-baseline="alphabetic">- Check for keys</text><text x="0" y="67.52" font-family="Virgil, Segoe UI Emoji" font-size="20px" fill="#1e1e1e" text-anchor="start" style="white-space: pre;" direction="ltr" dominant-baseline="alphabetic">- gradlew check</text></g><g transform="translate(64.66674804687477 474.762021019345) rotate(0 82.86990356445312 12.5)"><text x="0" y="17.52" font-family="Virgil, Segoe UI Emoji" font-size="20px" fill="#f08c00" text-anchor="start" style="white-space: pre;" direction="ltr" dominant-baseline="alphabetic">Pre-commit hooks</text></g><g stroke-linecap="round" transform="translate(373.52389381045396 538.8572256905693) rotate(0 126.85712541852669 41.71432495117176)"><path d="M20.86 0 C78.5 -0.7, 135.52 -1.67, 232.86 0 M20.86 0 C88.44 0.92, 154.21 0.1, 232.86 0 M232.86 0 C245.93 -1.39, 254.09 8.42, 253.71 20.86 M232.86 0 C245.61 -1.52, 253.46 4.83, 253.71 20.86 M253.71 20.86 C252.38 33.23, 254.54 45.22, 253.71 62.57 M253.71 20.86 C253.87 32.78, 253.33 45.01, 253.71 62.57 M253.71 62.57 C251.94 74.89, 248.02 82.37, 232.86 83.43 M253.71 62.57 C255.67 74.84, 246.99 82.09, 232.86 83.43 M232.86 83.43 C181.62 82.89, 133.31 82.75, 20.86 83.43 M232.86 83.43 C158.79 84.86, 84.43 85.99, 20.86 83.43 M20.86 83.43 C7.21 83.54, -1.76 75.85, 0 62.57 M20.86 83.43 C8.15 81.45, 1.51 75.06, 0 62.57 M0 62.57 C1.66 51.67, -0.23 40.89, 0 20.86 M0 62.57 C0.71 51.37, -0.64 41.49, 0 20.86 M0 20.86 C-1.89 6.72, 8.54 1.18, 20.86 0 M0 20.86 C0.79 6.37, 5.01 2.17, 20.86 0" stroke="#2f9e44" stroke-width="2" fill="none"></path></g><g transform="translate(414.6667335146958 567.4286106654575) rotate(0 80.59989929199219 12.5)"><text x="0" y="17.52" font-family="Virgil, Segoe UI Emoji" font-size="20px" fill="#1e1e1e" text-anchor="start" style="white-space: pre;" direction="ltr" dominant-baseline="alphabetic">- Verify message</text></g><g transform="translate(383.8097127278645 508.0000741141182) rotate(0 84.28990173339844 12.5)"><text x="0" y="17.52" font-family="Virgil, Segoe UI Emoji" font-size="20px" fill="#2f9e44" text-anchor="start" style="white-space: pre;" direction="ltr" dominant-baseline="alphabetic">Post-commit hook</text></g><g transform="translate(75.14339520935147 264.9503464525354) rotate(0 93.0521469116211 57.66772170025753)"><text x="0" y="20.20676968377024" font-family="Virgil, Segoe UI Emoji" font-size="23.067088680103012px" fill="#2f9e44" text-anchor="start" style="white-space: pre;" direction="ltr" dominant-baseline="alphabetic">Can be run with:</text><text x="0" y="49.040630533899005" font-family="Virgil, Segoe UI Emoji" font-size="23.067088680103012px" fill="#2f9e44" text-anchor="start" style="white-space: pre;" direction="ltr" dominant-baseline="alphabetic">- git commit </text><text x="0" y="77.87449138402778" font-family="Virgil, Segoe UI Emoji" font-size="23.067088680103012px" fill="#2f9e44" text-anchor="start" style="white-space: pre;" direction="ltr" dominant-baseline="alphabetic">- npm run commit</text><text x="0" y="106.70835223415654" font-family="Virgil, Segoe UI Emoji" font-size="23.067088680103012px" fill="#2f9e44" text-anchor="start" style="white-space: pre;" direction="ltr" dominant-baseline="alphabetic">- ide commit</text></g><g stroke-linecap="round"><g transform="translate(137.02223500017848 431.8120197965924) rotate(0 1.7769993090897493 26.61791007008175)"><path d="M-0.45 -0.64 C0.42 8.02, 3.31 44.15, 4.1 53.04 M1.51 1.64 C2.37 11, 3.05 45.8, 3.44 54.47" stroke="#f08c00" stroke-width="2" fill="none"></path></g><g transform="translate(137.02223500017848 431.8120197965924) rotate(0 1.7769993090897493 26.61791007008175)"><path d="M-5.85 31.26 C-4.79 36.97, -2.15 42.01, 3.44 54.47 M-5.85 31.26 C-4.37 37.86, -0.96 42.16, 3.44 54.47" stroke="#f08c00" stroke-width="2" fill="none"></path></g><g transform="translate(137.02223500017848 431.8120197965924) rotate(0 1.7769993090897493 26.61791007008175)"><path d="M11.24 30.72 C8.8 36.48, 7.93 41.63, 3.44 54.47 M11.24 30.72 C8.41 37.54, 7.51 41.98, 3.44 54.47" stroke="#f08c00" stroke-width="2" fill="none"></path></g></g><mask></mask><g stroke-linecap="round"><g transform="translate(324.0951102120533 570.0128005242182) rotate(0 22.58561729172453 -1.0363395566680254)"><path d="M0.53 -0.33 C8.13 -0.78, 37.99 -2.19, 45.42 -2.46 M0.15 0.68 C7.71 0.28, 37.68 -1.63, 45.12 -1.96" stroke="#f08c00" stroke-width="2" fill="none"></path></g><g transform="translate(324.0951102120533 570.0128005242182) rotate(0 22.58561729172453 -1.0363395566680254)"><path d="M24.33 6.93 C29.34 4.89, 34.87 1.99, 45.12 -1.96 M24.33 6.93 C30.67 3.96, 38.03 1.68, 45.12 -1.96" stroke="#f08c00" stroke-width="2" fill="none"></path></g><g transform="translate(324.0951102120533 570.0128005242182) rotate(0 22.58561729172453 -1.0363395566680254)"><path d="M23.48 -8.51 C28.74 -6.38, 34.51 -5.1, 45.12 -1.96 M23.48 -8.51 C30.11 -6.46, 37.74 -3.72, 45.12 -1.96" stroke="#f08c00" stroke-width="2" fill="none"></path></g></g><mask></mask><g stroke-linecap="round" transform="translate(374.95245070684484 198.76182919456835) rotate(0 129.14284842354908 98.28574044363845)"><path d="M32 0 C83.74 -0.17, 132.14 0.77, 226.29 0 M32 0 C75.49 1.79, 118.16 2.03, 226.29 0 M226.29 0 C246.27 -0.36, 257.48 11.55, 258.29 32 M226.29 0 C247.34 0.31, 258.3 8.96, 258.29 32 M258.29 32 C258.82 66.91, 256.99 102.92, 258.29 164.57 M258.29 32 C257.39 79.02, 257.34 123.65, 258.29 164.57 M258.29 164.57 C259.54 184.6, 248.63 197.18, 226.29 196.57 M258.29 164.57 C258.82 187.34, 247.19 195.43, 226.29 196.57 M226.29 196.57 C180.94 199.88, 132.46 197.2, 32 196.57 M226.29 196.57 C177.06 196.05, 126.15 197.07, 32 196.57 M32 196.57 C11.49 195, 0.17 184, 0 164.57 M32 196.57 C11.71 194.71, -2.03 187.68, 0 164.57 M0 164.57 C0.57 137.87, 0.06 112.45, 0 32 M0 164.57 C-0.35 128.32, -0.47 90.87, 0 32 M0 32 C1.51 10.26, 10.58 -1.21, 32 0 M0 32 C0.45 10.52, 8.5 1.3, 32 0" stroke="#e03131" stroke-width="2" fill="none"></path></g><g transform="translate(466.3810221354162 226.47623697916663) rotate(0 40.78801727294922 22.5)"><text x="0" y="31.536" font-family="Virgil, Segoe UI Emoji" font-size="36px" fill="#e03131" text-anchor="start" style="white-space: pre;" direction="ltr" dominant-baseline="alphabetic">Push</text></g><g transform="translate(453.8096110026038 308.19040934244777) rotate(0 49.36994171142578 25)"><text x="0" y="17.52" font-family="Virgil, Segoe UI Emoji" font-size="20px" fill="#1e1e1e" text-anchor="start" style="white-space: pre;" direction="ltr" dominant-baseline="alphabetic">- From ide</text><text x="0" y="42.519999999999996" font-family="Virgil, Segoe UI Emoji" font-size="20px" fill="#1e1e1e" text-anchor="start" style="white-space: pre;" direction="ltr" dominant-baseline="alphabetic">- git push</text></g><g stroke-linecap="round"><g transform="translate(509.6845027673225 521.428680419922) rotate(0 -3.2088267425924926 -53.904836745489234)"><path d="M-0.45 -0.12 C-1.38 -18.18, -4.83 -89.94, -5.84 -107.84 M1.51 -1.23 C0.5 -19.13, -5 -88.85, -6.49 -106.32" stroke="#f08c00" stroke-width="2" fill="none"></path></g><g transform="translate(509.6845027673225 521.428680419922) rotate(0 -3.2088267425924926 -53.904836745489234)"><path d="M3.93 -83.59 C0.74 -88.99, -2 -96.5, -6.49 -106.32 M3.93 -83.59 C0.85 -90, -2.37 -98.85, -6.49 -106.32" stroke="#f08c00" stroke-width="2" fill="none"></path></g><g transform="translate(509.6845027673225 521.428680419922) rotate(0 -3.2088267425924926 -53.904836745489234)"><path d="M-13.11 -82.21 C-11.57 -87.93, -9.58 -95.82, -6.49 -106.32 M-13.11 -82.21 C-10.69 -89, -8.4 -98.29, -6.49 -106.32" stroke="#f08c00" stroke-width="2" fill="none"></path></g></g><mask></mask><g stroke-linecap="round" transform="translate(675.5240158807658 154.38083467029378) rotate(0 131.42857142857144 53.14283098493303)"><path d="M26.57 0 C73.74 2.52, 123.95 2.64, 236.29 0 M26.57 0 C71.62 2.2, 114.28 1.94, 236.29 0 M236.29 0 C253.29 1.08, 260.94 7.03, 262.86 26.57 M236.29 0 C252.18 -1.6, 264.13 9.32, 262.86 26.57 M262.86 26.57 C264.8 48.46, 265.28 69.4, 262.86 79.71 M262.86 26.57 C262.83 39.48, 262.55 51.67, 262.86 79.71 M262.86 79.71 C260.91 96.05, 254.11 108.14, 236.29 106.29 M262.86 79.71 C261.32 96.23, 254.51 106.86, 236.29 106.29 M236.29 106.29 C153.81 104.74, 75.31 103.67, 26.57 106.29 M236.29 106.29 C182.31 107.13, 129.61 107.05, 26.57 106.29 M26.57 106.29 C10.36 108.2, -0.29 96.95, 0 79.71 M26.57 106.29 C10.49 105.87, 1.68 95.34, 0 79.71 M0 79.71 C2.39 61.8, -0.93 43.51, 0 26.57 M0 79.71 C-0.21 61.34, -0.22 40.81, 0 26.57 M0 26.57 C-0.65 8.04, 10.37 1.19, 26.57 0 M0 26.57 C0.35 8.14, 7.54 2.12, 26.57 0" stroke="#1971c2" stroke-width="2" fill="none"></path></g><g transform="translate(705.2382841564354 122.38079979306167) rotate(0 72.78990936279297 12.5)"><text x="0" y="17.52" font-family="Virgil, Segoe UI Emoji" font-size="20px" fill="#1971c2" text-anchor="start" style="white-space: pre;" direction="ltr" dominant-baseline="alphabetic">Pre-push hooks</text></g><g transform="translate(710.9525698707212 174.95221092587417) rotate(0 76.23990631103516 50)"><text x="0" y="17.52" font-family="Virgil, Segoe UI Emoji" font-size="20px" fill="#1e1e1e" text-anchor="start" style="white-space: pre;" direction="ltr" dominant-baseline="alphabetic">- gradlew check</text><text x="0" y="42.519999999999996" font-family="Virgil, Segoe UI Emoji" font-size="20px" fill="#1e1e1e" text-anchor="start" style="white-space: pre;" direction="ltr" dominant-baseline="alphabetic">- gradlew test</text><text x="0" y="67.52" font-family="Virgil, Segoe UI Emoji" font-size="20px" fill="#1e1e1e" text-anchor="start" style="white-space: pre;" direction="ltr" dominant-baseline="alphabetic">- gradlew build </text><text x="0" y="92.52" font-family="Virgil, Segoe UI Emoji" font-size="20px" fill="#1e1e1e" text-anchor="start" style="white-space: pre;" direction="ltr" dominant-baseline="alphabetic"></text></g><g stroke-linecap="round"><g transform="translate(651.5730872728429 272.65366844911927) rotate(0 4.9683840514714745 -23.856350482514898)"><path d="M0.22 0.06 C1.88 -7.86, 7.82 -39.17, 9.51 -47.18 M-0.33 -0.38 C1.54 -8.48, 8.76 -40.01, 10.52 -47.87" stroke="#1e1e1e" stroke-width="2" fill="none"></path></g><g transform="translate(651.5730872728429 272.65366844911927) rotate(0 4.9683840514714745 -23.856350482514898)"><path d="M13.58 -23.69 C12.94 -29.79, 13.12 -33.52, 10.52 -47.87 M13.58 -23.69 C13 -30.09, 12.3 -35.98, 10.52 -47.87" stroke="#1e1e1e" stroke-width="2" fill="none"></path></g><g transform="translate(651.5730872728429 272.65366844911927) rotate(0 4.9683840514714745 -23.856350482514898)"><path d="M-2.68 -27.39 C0.28 -32.7, 4.04 -35.62, 10.52 -47.87 M-2.68 -27.39 C0.86 -32.87, 4.27 -37.82, 10.52 -47.87" stroke="#1e1e1e" stroke-width="2" fill="none"></path></g></g><mask></mask><g transform="translate(76.28570556640625 35.42857578822546) rotate(0 188.33407592773438 22.5)"><text x="0" y="31.536" font-family="Virgil, Segoe UI Emoji" font-size="36px" fill="#e03131" text-anchor="start" style="white-space: pre;" direction="ltr" dominant-baseline="alphabetic">Local feature branch</text></g><g stroke-linecap="round" transform="translate(962.7619934082032 10.571394420805461) rotate(0 553.0476161411829 367.4285997663225)"><path d="M32 0 C344 3.2, 655.73 2.76, 1074.1 0 M32 0 C314.59 1.13, 597.6 1.03, 1074.1 0 M1074.1 0 C1097.06 1.15, 1104.9 10.5, 1106.1 32 M1074.1 0 C1096.72 -0.86, 1106.46 11.9, 1106.1 32 M1106.1 32 C1104.82 298.98, 1105.6 565.38, 1106.1 702.86 M1106.1 32 C1107.77 296.45, 1107.95 560.72, 1106.1 702.86 M1106.1 702.86 C1105.37 725.67, 1096.89 733.8, 1074.1 734.86 M1106.1 702.86 C1105.11 721.95, 1093.6 734.99, 1074.1 734.86 M1074.1 734.86 C780.44 735.73, 488.11 736.35, 32 734.86 M1074.1 734.86 C726.07 737.63, 378.32 737.13, 32 734.86 M32 734.86 C10.06 735.8, -1.48 723.9, 0 702.86 M32 734.86 C10.13 735.24, 1.96 726.46, 0 702.86 M0 702.86 C1.73 468.76, 0.96 235.06, 0 32 M0 702.86 C1.54 492.02, 1.2 282.04, 0 32 M0 32 C-0.65 8.77, 11.11 -0.6, 32 0 M0 32 C-1.39 10.8, 10.26 1.69, 32 0" stroke="#1971c2" stroke-width="2" fill="none"></path></g><g transform="translate(1081.999991280692 42.00001307896207) rotate(0 129.00604248046875 22.5)"><text x="0" y="31.536" font-family="Virgil, Segoe UI Emoji" font-size="36px" fill="#1971c2" text-anchor="start" style="white-space: pre;" direction="ltr" dominant-baseline="alphabetic">Remote Github</text></g><g stroke-linecap="round" transform="translate(988.095441545759 147.33325776599713) rotate(0 118.85711669921875 55.42857578822543)"><path d="M27.71 0 C95.21 -0.63, 166.87 -0.14, 210 0 M27.71 0 C74.45 1.88, 119.39 0.53, 210 0 M210 0 C230.44 -1.21, 236.83 10.92, 237.71 27.71 M210 0 C226.46 0.58, 237.46 10.22, 237.71 27.71 M237.71 27.71 C237.86 45.33, 236.63 60.66, 237.71 83.14 M237.71 27.71 C238.25 41.94, 238.29 54.65, 237.71 83.14 M237.71 83.14 C237.81 102.66, 227.28 111.23, 210 110.86 M237.71 83.14 C238.27 103, 226.56 111.75, 210 110.86 M210 110.86 C156.92 109.21, 106.33 109.21, 27.71 110.86 M210 110.86 C145.99 110.96, 83.73 111.66, 27.71 110.86 M27.71 110.86 C7.64 111.38, 0.05 103.33, 0 83.14 M27.71 110.86 C10.78 109.05, -1.77 102.1, 0 83.14 M0 83.14 C2.34 71.36, -0.25 60.2, 0 27.71 M0 83.14 C0.52 70.86, -0.5 58.25, 0 27.71 M0 27.71 C-0.42 10.24, 9.61 1.37, 27.71 0 M0 27.71 C-0.9 7.76, 8.63 -2.2, 27.71 0" stroke="#1971c2" stroke-width="2" fill="none"></path></g><g transform="translate(1006.3807896205357 178.19045293898802) rotate(0 101.5200424194336 22.5)"><text x="0" y="31.536" font-family="Virgil, Segoe UI Emoji" font-size="36px" fill="#1971c2" text-anchor="start" style="white-space: pre;" direction="ltr" dominant-baseline="alphabetic">FeatBranch</text></g><g stroke-linecap="round" transform="translate(994.3809727260042 317.9999578566779) rotate(0 120.57137625558039 53.71427263532365)"><path d="M26.86 0 C88.6 1.55, 148.12 0.69, 214.29 0 M26.86 0 C78.4 -1.42, 130.24 -1.94, 214.29 0 M214.29 0 C230.73 -1.53, 239.63 7.66, 241.14 26.86 M214.29 0 C233.32 1.26, 240.58 9.32, 241.14 26.86 M241.14 26.86 C239.83 43.23, 243.01 62.83, 241.14 80.57 M241.14 26.86 C241.08 42.73, 240.77 58.22, 241.14 80.57 M241.14 80.57 C242.11 97.66, 231.61 107.5, 214.29 107.43 M241.14 80.57 C240.98 98.29, 231.33 109.42, 214.29 107.43 M214.29 107.43 C157.68 105.44, 95.9 105.05, 26.86 107.43 M214.29 107.43 C163.71 106.8, 112.06 107.64, 26.86 107.43 M26.86 107.43 C8.77 106.87, -1.44 100.42, 0 80.57 M26.86 107.43 C7.97 108.58, 0.98 96.86, 0 80.57 M0 80.57 C-0.63 67.6, 0.93 54.38, 0 26.86 M0 80.57 C0.87 66.51, -0.32 51.6, 0 26.86 M0 26.86 C1.57 7.09, 8.58 -0.21, 26.86 0 M0 26.86 C0.84 7.42, 8.1 -0.37, 26.86 0" stroke="#e03131" stroke-width="2" fill="none"></path></g><g transform="translate(1027.5237601143972 346.5713864281064) rotate(0 89.98201751708984 22.5)"><text x="0" y="31.536" font-family="Virgil, Segoe UI Emoji" font-size="36px" fill="#e03131" text-anchor="start" style="white-space: pre;" direction="ltr" dominant-baseline="alphabetic">PR on dev</text></g><g stroke-linecap="round" transform="translate(1312.2856067475818 298.95230247860866) rotate(0 149.14289202008933 198.8571384974888)"><path d="M32 0 C96.07 -2.11, 160.66 -3.14, 266.29 0 M32 0 C114.71 1.06, 197.86 2.01, 266.29 0 M266.29 0 C286.29 -0.94, 300.11 10.55, 298.29 32 M266.29 0 C288.55 0.81, 298.44 10.57, 298.29 32 M298.29 32 C298.86 142.1, 297.63 254.44, 298.29 365.71 M298.29 32 C299.24 151.34, 299.3 270.63, 298.29 365.71 M298.29 365.71 C298.55 388.75, 288.02 399.11, 266.29 397.71 M298.29 365.71 C296.32 387.81, 288.57 398.87, 266.29 397.71 M266.29 397.71 C199.36 395.95, 132.04 398.43, 32 397.71 M266.29 397.71 C181.46 400.1, 98.16 399.85, 32 397.71 M32 397.71 C12.44 396.13, -1.33 386.69, 0 365.71 M32 397.71 C8.52 398.07, 1.83 386.87, 0 365.71 M0 365.71 C0.2 232.19, -0.54 99.97, 0 32 M0 365.71 C-0.27 257.11, -1.09 149.14, 0 32 M0 32 C1.61 9.12, 9.6 -0.25, 32 0 M0 32 C-1.65 12.46, 9.12 -2.22, 32 0" stroke="#f08c00" stroke-width="2" fill="none"></path></g><g transform="translate(1329.4284638904392 260.95229375930063) rotate(0 32.16996765136719 12.5)"><text x="0" y="17.52" font-family="Virgil, Segoe UI Emoji" font-size="20px" fill="#1e1e1e" text-anchor="start" style="white-space: pre;" direction="ltr" dominant-baseline="alphabetic">Checks</text></g><g stroke-linecap="round" transform="translate(1658.1451621281658 152.8626117799086) rotate(0 186.68088849686774 74.92118967888975)"><path d="M32 0 C131.58 -0.31, 233.58 0.96, 341.36 0 M32 0 C120.87 -0.73, 207.83 -0.54, 341.36 0 M341.36 0 C363.78 -1.43, 374.12 10.87, 373.36 32 M341.36 0 C362.9 -0.43, 374.91 11.43, 373.36 32 M373.36 32 C372.21 53.37, 375.57 75.78, 373.36 117.84 M373.36 32 C374.32 60.98, 373.82 91.82, 373.36 117.84 M373.36 117.84 C372.45 138.72, 364.38 149.72, 341.36 149.84 M373.36 117.84 C371.1 137.42, 360.48 151.8, 341.36 149.84 M341.36 149.84 C260.13 151.26, 178.36 150.39, 32 149.84 M341.36 149.84 C260.01 148.72, 179.45 147.87, 32 149.84 M32 149.84 C11.08 150.89, -1.51 138.82, 0 117.84 M32 149.84 C8.83 151.06, 0.21 138.08, 0 117.84 M0 117.84 C1.07 91.29, -1.55 65.14, 0 32 M0 117.84 C1.51 95.32, 1.33 71.32, 0 32 M0 32 C1.34 12.4, 11.07 1.92, 32 0 M0 32 C1.71 11.29, 9.43 1.73, 32 0" stroke="#1e1e1e" stroke-width="2" fill="none"></path></g><g transform="translate(1672.619379775092 105.23108986997005) rotate(0 172.480712890625 17.5)"><text x="0" y="24.528" font-family="Virgil, Segoe UI Emoji" font-size="28px" fill="#1e1e1e" text-anchor="start" style="white-space: pre;" direction="ltr" dominant-baseline="alphabetic">Release Nightly 1.0.1-dev.1</text></g><g stroke-linecap="round"><g transform="translate(947.3811383928567 199.50344050261282) rotate(0 14.372651490730334 0.8014130636553531)"><path d="M-0.4 0.41 C4.33 0.71, 24 1.59, 28.91 1.84 M0.39 0.15 C5.02 0.27, 23.82 0.85, 28.56 1" stroke="#1e1e1e" stroke-width="2" fill="none"></path></g><g transform="translate(947.3811383928567 199.50344050261282) rotate(0 14.372651490730334 0.8014130636553531)"><path d="M14.89 5.5 C20.78 4, 25.9 2.42, 28.56 1 M14.89 5.5 C19.75 3.96, 24.99 2.44, 28.56 1" stroke="#1e1e1e" stroke-width="2" fill="none"></path></g><g transform="translate(947.3811383928567 199.50344050261282) rotate(0 14.372651490730334 0.8014130636553531)"><path d="M15.19 -4.34 C20.97 -1.99, 25.97 0.29, 28.56 1 M15.19 -4.34 C19.9 -2.35, 25.04 -0.33, 28.56 1" stroke="#1e1e1e" stroke-width="2" fill="none"></path></g></g><mask></mask><g stroke-linecap="round"><g transform="translate(1089.252366503544 277.4284653436572) rotate(0 1.1316299066349984 11.619055611746603)"><path d="M-0.06 -0.47 C0.19 3.3, 1.68 18.88, 2.06 22.79 M-0.76 0.48 C-0.64 4.28, 1.1 19.43, 1.52 23.25" stroke="#1971c2" stroke-width="2" fill="none"></path></g><g transform="translate(1089.252366503544 277.4284653436572) rotate(0 1.1316299066349984 11.619055611746603)"><path d="M-3.66 12.79 C-2.07 16.75, 0.01 21.04, 1.52 23.25 M-3.66 12.79 C-2.13 15.16, -1.08 18.25, 1.52 23.25" stroke="#1971c2" stroke-width="2" fill="none"></path></g><g transform="translate(1089.252366503544 277.4284653436572) rotate(0 1.1316299066349984 11.619055611746603)"><path d="M4.27 11.91 C2.7 16.21, 1.61 20.85, 1.52 23.25 M4.27 11.91 C3.85 14.46, 2.95 17.77, 1.52 23.25" stroke="#1971c2" stroke-width="2" fill="none"></path></g></g><mask></mask><g stroke-linecap="round" transform="translate(1352.9047648111973 104.1904885428292) rotate(0 120.57137625558039 53.71427263532366)"><path d="M26.86 0 C69.62 -2.66, 109.32 -0.39, 214.29 0 M26.86 0 C84.89 0.43, 141.63 0.33, 214.29 0 M214.29 0 C232.3 -0.69, 242.31 9.9, 241.14 26.86 M214.29 0 C232.38 -1.69, 240.86 8.32, 241.14 26.86 M241.14 26.86 C240.79 36.32, 242.85 48.77, 241.14 80.57 M241.14 26.86 C241.31 49, 240.52 68.97, 241.14 80.57 M241.14 80.57 C239.23 97.38, 231.21 107.47, 214.29 107.43 M241.14 80.57 C238.89 100.51, 229.98 106.59, 214.29 107.43 M214.29 107.43 C140.21 108.56, 64.47 105.27, 26.86 107.43 M214.29 107.43 C156.39 109.29, 99.87 108.45, 26.86 107.43 M26.86 107.43 C8.19 107.61, -0.92 97.91, 0 80.57 M26.86 107.43 C11.07 108.11, 1.71 99.44, 0 80.57 M0 80.57 C1.44 67.15, -0.02 56.67, 0 26.86 M0 80.57 C-0.14 66.45, 0.84 54.41, 0 26.86 M0 26.86 C1.48 7.22, 8.18 0.04, 26.86 0 M0 26.86 C-1.91 8.73, 9.66 1.02, 26.86 0" stroke="#2f9e44" stroke-width="2" fill="none"></path></g><g transform="translate(1419.380885532924 132.7619171142577) rotate(0 50.238014221191406 22.5)"><text x="0" y="31.536" font-family="Virgil, Segoe UI Emoji" font-size="36px" fill="#2f9e44" text-anchor="start" style="white-space: pre;" direction="ltr" dominant-baseline="alphabetic">Merge</text></g><g stroke-linecap="round"><g transform="translate(1249.4762021019342 358.76799329791737) rotate(0 26.66661580403661 -1.3915330354718733)"><path d="M-0.02 -1.2 C8.92 -1.7, 44.34 -3.5, 53.32 -3.58 M-1.49 0.79 C7.32 0.47, 43.22 -1.76, 52.36 -2.46" stroke="#e03131" stroke-width="2" fill="none"></path></g><g transform="translate(1249.4762021019342 358.76799329791737) rotate(0 26.66661580403661 -1.3915330354718733)"><path d="M29.51 7.66 C33.85 4.85, 40.82 2.98, 52.36 -2.46 M29.51 7.66 C37.56 4.36, 46.78 -1.14, 52.36 -2.46" stroke="#e03131" stroke-width="2" fill="none"></path></g><g transform="translate(1249.4762021019342 358.76799329791737) rotate(0 26.66661580403661 -1.3915330354718733)"><path d="M28.35 -9.4 C32.93 -7.51, 40.22 -4.68, 52.36 -2.46 M28.35 -9.4 C36.96 -6, 46.64 -4.8, 52.36 -2.46" stroke="#e03131" stroke-width="2" fill="none"></path></g></g><mask></mask><g stroke-linecap="round"><g transform="translate(1439.7914291103684 280.90476626441597) rotate(0 -2.3887124590258964 -30.00000000000003)"><path d="M0.02 0.27 C-0.69 -9.7, -2.78 -49.45, -3.62 -59.6 M-1.43 -0.63 C-2.26 -11, -3.22 -51.67, -3.96 -61.51" stroke="#f08c00" stroke-width="2" fill="none"></path></g><g transform="translate(1439.7914291103684 280.90476626441597) rotate(0 -2.3887124590258964 -30.00000000000003)"><path d="M5.66 -38.44 C2.66 -44.68, -0.53 -55.11, -3.96 -61.51 M5.66 -38.44 C3.42 -44.74, 0.81 -50.74, -3.96 -61.51" stroke="#f08c00" stroke-width="2" fill="none"></path></g><g transform="translate(1439.7914291103684 280.90476626441597) rotate(0 -2.3887124590258964 -30.00000000000003)"><path d="M-11.42 -37.65 C-8.38 -44.17, -5.52 -54.89, -3.96 -61.51 M-11.42 -37.65 C-9.48 -44.07, -7.92 -50.26, -3.96 -61.51" stroke="#f08c00" stroke-width="2" fill="none"></path></g></g><mask></mask><g stroke-linecap="round"><g transform="translate(1608.666578020368 206.6792937332458) rotate(0 15.429737726797043 5.6913594486632455)"><path d="M0.36 -0.3 C5.61 1.59, 25.98 9.38, 31.14 11.31 M-0.12 0.74 C5.12 2.72, 25.63 10.13, 30.86 11.98" stroke="#2f9e44" stroke-width="2" fill="none"></path></g><g transform="translate(1608.666578020368 206.6792937332458) rotate(0 15.429737726797043 5.6913594486632455)"><path d="M14.41 12.06 C17.75 12.42, 21.88 12.7, 30.86 11.98 M14.41 12.06 C18.98 11.68, 23.53 12.05, 30.86 11.98" stroke="#2f9e44" stroke-width="2" fill="none"></path></g><g transform="translate(1608.666578020368 206.6792937332458) rotate(0 15.429737726797043 5.6913594486632455)"><path d="M18.21 1.47 C20.67 4.27, 23.92 7, 30.86 11.98 M18.21 1.47 C21.73 4.07, 25.21 7.42, 30.86 11.98" stroke="#2f9e44" stroke-width="2" fill="none"></path></g></g><mask></mask><g stroke-linecap="round" transform="translate(1694.8097592308395 393.21512683008336) rotate(0 144.66654459635402 52.356285755947084)"><path d="M26.18 0 C72.64 0.21, 122.09 -2.16, 263.15 0 M26.18 0 C111.25 0.05, 196.59 1.15, 263.15 0 M263.15 0 C281.05 -1.83, 287.94 10.17, 289.33 26.18 M263.15 0 C280.87 -1.53, 287.85 6.95, 289.33 26.18 M289.33 26.18 C289.35 39.83, 288.65 53.42, 289.33 78.53 M289.33 26.18 C288.07 43.92, 289.23 61.55, 289.33 78.53 M289.33 78.53 C288.87 95.24, 279.03 103.02, 263.15 104.71 M289.33 78.53 C290.18 98.15, 281.41 102.69, 263.15 104.71 M263.15 104.71 C207.74 105.3, 150.86 103.62, 26.18 104.71 M263.15 104.71 C170.34 106.11, 76.69 106.28, 26.18 104.71 M26.18 104.71 C7.25 106.06, 0.51 96.59, 0 78.53 M26.18 104.71 C10.56 104.04, -1.18 94.29, 0 78.53 M0 78.53 C-0.56 59.65, 1.06 43.41, 0 26.18 M0 78.53 C0.53 64.79, -0.71 49.65, 0 26.18 M0 26.18 C-0.9 9.95, 10.11 1.01, 26.18 0 M0 26.18 C0.21 7.33, 8.56 -1.58, 26.18 0" stroke="#e03131" stroke-width="2" fill="none"></path></g><g transform="translate(1774.9475852258456 430.18920915960007) rotate(0 65.17992401123047 12.5)"><text x="0" y="17.52" font-family="Virgil, Segoe UI Emoji" font-size="20px" fill="#e03131" text-anchor="start" style="white-space: pre;" direction="ltr" dominant-baseline="alphabetic">PR on Stable</text></g><g stroke-linecap="round" transform="translate(1687.4619599266812 572.2733176871607) rotate(0 162.01414044999274 54.254533184749135)"><path d="M27.13 0 C132.38 2.47, 238.82 3.18, 296.9 0 M27.13 0 C123.23 -2.53, 219.99 -1.74, 296.9 0 M296.9 0 C314.52 -1.99, 325.28 8.63, 324.03 27.13 M296.9 0 C314.13 -1.56, 325.99 8.33, 324.03 27.13 M324.03 27.13 C325.93 46.64, 325.19 66.08, 324.03 81.38 M324.03 27.13 C323.31 47.78, 323.22 68.9, 324.03 81.38 M324.03 81.38 C325.98 100.35, 316.61 107.42, 296.9 108.51 M324.03 81.38 C322 100.72, 314.6 107.8, 296.9 108.51 M296.9 108.51 C231.6 108.98, 167.44 111.33, 27.13 108.51 M296.9 108.51 C213.63 108.62, 131.41 108.78, 27.13 108.51 M27.13 108.51 C7.92 109.67, 1.7 98.3, 0 81.38 M27.13 108.51 C9.16 106.81, 2.17 97.98, 0 81.38 M0 81.38 C0.43 68.59, 2.04 58.65, 0 27.13 M0 81.38 C-0.24 62.11, 0 40.96, 0 27.13 M0 27.13 C0.04 9.15, 10.5 0.12, 27.13 0 M0 27.13 C-0.98 9.14, 7.91 2.14, 27.13 0" stroke="#1e1e1e" stroke-width="2" fill="none"></path></g><g transform="translate(1776.1427670433404 599.5715550013953) rotate(0 74.49990844726562 25)"><text x="0" y="17.52" font-family="Virgil, Segoe UI Emoji" font-size="20px" fill="#1e1e1e" text-anchor="start" style="white-space: pre;" direction="ltr" dominant-baseline="alphabetic">Release Stable</text><text x="0" y="42.519999999999996" font-family="Virgil, Segoe UI Emoji" font-size="20px" fill="#1e1e1e" text-anchor="start" style="white-space: pre;" direction="ltr" dominant-baseline="alphabetic">    1.0.1</text></g><g transform="translate(1342.8094337100074 312.90473574683784) rotate(0 105.72988891601562 150)"><text x="0" y="17.52" font-family="Virgil, Segoe UI Emoji" font-size="20px" fill="#1e1e1e" text-anchor="start" style="white-space: pre;" direction="ltr" dominant-baseline="alphabetic">Github CI/CD checks:</text><text x="0" y="42.519999999999996" font-family="Virgil, Segoe UI Emoji" font-size="20px" fill="#1e1e1e" text-anchor="start" style="white-space: pre;" direction="ltr" dominant-baseline="alphabetic"></text><text x="0" y="67.52" font-family="Virgil, Segoe UI Emoji" font-size="20px" fill="#1e1e1e" text-anchor="start" style="white-space: pre;" direction="ltr" dominant-baseline="alphabetic">Main checks:</text><text x="0" y="92.52" font-family="Virgil, Segoe UI Emoji" font-size="20px" fill="#1e1e1e" text-anchor="start" style="white-space: pre;" direction="ltr" dominant-baseline="alphabetic"></text><text x="0" y="117.52" font-family="Virgil, Segoe UI Emoji" font-size="20px" fill="#1e1e1e" text-anchor="start" style="white-space: pre;" direction="ltr" dominant-baseline="alphabetic">- Semgrep</text><text x="0" y="142.52" font-family="Virgil, Segoe UI Emoji" font-size="20px" fill="#1e1e1e" text-anchor="start" style="white-space: pre;" direction="ltr" dominant-baseline="alphabetic">- CodeQL</text><text x="0" y="167.52" font-family="Virgil, Segoe UI Emoji" font-size="20px" fill="#1e1e1e" text-anchor="start" style="white-space: pre;" direction="ltr" dominant-baseline="alphabetic">- SonarQUBE</text><text x="0" y="192.52" font-family="Virgil, Segoe UI Emoji" font-size="20px" fill="#1e1e1e" text-anchor="start" style="white-space: pre;" direction="ltr" dominant-baseline="alphabetic">- GitGuardian</text><text x="0" y="217.52" font-family="Virgil, Segoe UI Emoji" font-size="20px" fill="#1e1e1e" text-anchor="start" style="white-space: pre;" direction="ltr" dominant-baseline="alphabetic">- Dependency review</text><text x="0" y="242.52" font-family="Virgil, Segoe UI Emoji" font-size="20px" fill="#1e1e1e" text-anchor="start" style="white-space: pre;" direction="ltr" dominant-baseline="alphabetic">- Check, Test, Build </text><text x="0" y="267.52" font-family="Virgil, Segoe UI Emoji" font-size="20px" fill="#1e1e1e" text-anchor="start" style="white-space: pre;" direction="ltr" dominant-baseline="alphabetic"> ( windows + linux )</text><text x="0" y="292.52" font-family="Virgil, Segoe UI Emoji" font-size="20px" fill="#1e1e1e" text-anchor="start" style="white-space: pre;" direction="ltr" dominant-baseline="alphabetic">- Snyk Security</text></g><g transform="translate(1686.8094744001114 164.90470522925978) rotate(0 169.58985392252612 62.5)"><text x="0" y="17.52" font-family="Virgil, Segoe UI Emoji" font-size="20px" fill="#1e1e1e" text-anchor="start" style="white-space: pre;" direction="ltr" dominant-baseline="alphabetic">- Create git tag </text><text x="0" y="42.519999999999996" font-family="Virgil, Segoe UI Emoji" font-size="20px" fill="#1e1e1e" text-anchor="start" style="white-space: pre;" direction="ltr" dominant-baseline="alphabetic">- Create release notes</text><text x="0" y="67.52" font-family="Virgil, Segoe UI Emoji" font-size="20px" fill="#1e1e1e" text-anchor="start" style="white-space: pre;" direction="ltr" dominant-baseline="alphabetic">- Publish git release with notes</text><text x="0" y="92.52" font-family="Virgil, Segoe UI Emoji" font-size="20px" fill="#1e1e1e" text-anchor="start" style="white-space: pre;" direction="ltr" dominant-baseline="alphabetic">- Create and publish library </text><text x="0" y="117.52" font-family="Virgil, Segoe UI Emoji" font-size="20px" fill="#1e1e1e" text-anchor="start" style="white-space: pre;" direction="ltr" dominant-baseline="alphabetic"> on maven and github packages</text></g><g stroke-linecap="round"><g transform="translate(1837.6723142258538 306.2381199428014) rotate(0 1.8086148669169688 37.33334859212238)"><path d="M0.66 -0.67 C1.34 11.93, 3.36 61.87, 3.76 74.6 M-0.45 1.59 C0.11 14.48, 2.48 64.05, 2.89 76.11" stroke="#1e1e1e" stroke-width="2" fill="none"></path></g><g transform="translate(1837.6723142258538 306.2381199428014) rotate(0 1.8086148669169688 37.33334859212238)"><path d="M-6.64 52.99 C-5.34 59.51, -1.72 64.68, 2.89 76.11 M-6.64 52.99 C-4.01 62.65, -0.16 71.26, 2.89 76.11" stroke="#1e1e1e" stroke-width="2" fill="none"></path></g><g transform="translate(1837.6723142258538 306.2381199428014) rotate(0 1.8086148669169688 37.33334859212238)"><path d="M10.45 52.28 C7.06 59.08, 6.01 64.45, 2.89 76.11 M10.45 52.28 C6.46 62.08, 3.68 70.97, 2.89 76.11" stroke="#1e1e1e" stroke-width="2" fill="none"></path></g></g><mask></mask><g stroke-linecap="round"><g transform="translate(1840.9732992156014 504.90480695452015) rotate(0 2.369177307488826 27.333323160807367)"><path d="M-0.3 -0.23 C0.76 9.2, 4.5 46.88, 5.48 55.83 M1.74 -1.4 C2.78 7.8, 4.33 45.05, 4.92 54.33" stroke="#1e1e1e" stroke-width="2" fill="none"></path></g><g transform="translate(1840.9732992156014 504.90480695452015) rotate(0 2.369177307488826 27.333323160807367)"><path d="M-4.84 31.31 C-3.14 37.84, 1.43 43.33, 4.92 54.33 M-4.84 31.31 C-1.72 36.79, -0.48 41.46, 4.92 54.33" stroke="#1e1e1e" stroke-width="2" fill="none"></path></g><g transform="translate(1840.9732992156014 504.90480695452015) rotate(0 2.369177307488826 27.333323160807367)"><path d="M12.23 30.42 C10.03 37.11, 10.69 42.8, 4.92 54.33 M12.23 30.42 C11.87 35.92, 9.63 40.78, 4.92 54.33" stroke="#1e1e1e" stroke-width="2" fill="none"></path></g></g><mask></mask></svg>